<mxfile host="app.diagrams.net" modified="2024-05-26T10:07:55.015Z" agent="Mozilla/5.0 (Windows NT 10.0; Win64; x64) AppleWebKit/537.36 (KHTML, like Gecko) Chrome/125.0.0.0 Safari/537.36" version="24.4.8" etag="t8e2cqJAV8PF_vVU4fu3" type="github">
  <diagram name="第 1 页" id="-zo3Nn9Wb-8nufJivn4J">
    <mxGraphModel>
      <root>
        <mxCell id="0" />
        <mxCell id="1" parent="0" />
      </root>
    </mxGraphModel>
  </diagram>
</mxfile>
